# xmcd
#
# Track frame offsets: 
#        150
#        16147
#        34861
#        48778
#        64806
#        81521
#        95992
#        109711
#        128183
#        146193
#        162620
#        182824
#        203547
#
# Disc length: 3035 seconds
#
# Revision: 0
# Processed by: cddbd v1.4PL0 Copyright (c) Steve Scherf et al.
# Submitted via: ExactAudioCopy v0.90b4
#
DISCID=ba0bd90d
DTITLE=Isobel Anderson and Bob Taylor - Isobel Anderson and Bob Taylor
DYEAR=2001
DGENRE=Blues
TTITLE0=Last Night (I Telephoned)
TTITLE1=Love Song
TTITLE2=My Baby Just Cares For Me
TTITLE3=Morning Time
TTITLE4=Home At Last
TTITLE5=Unlucky Woman Blues
TTITLE6=Natural Woman
TTITLE7=It's Not Right
TTITLE8=Minutes
TTITLE9=Embraceable You
TTITLE10=When You Told Me
TTITLE11=I'd Rather Go Blind
TTITLE12=Wicked Wind
EXTD=
EXTT0=
EXTT1=
EXTT2=
EXTT3=
EXTT4=
EXTT5=
EXTT6=
EXTT7=
EXTT8=
EXTT9=
EXTT10=
EXTT11=
EXTT12=
PLAYORDER=
